<?xml version="1.0" encoding="UTF-8" standalone="no"?>
<!-- Created with Inkscape (http://www.inkscape.org/) -->

<svg
   xmlns:dc="http://purl.org/dc/elements/1.1/"
   xmlns:cc="http://creativecommons.org/ns#"
   xmlns:rdf="http://www.w3.org/1999/02/22-rdf-syntax-ns#"
   xmlns:svg="http://www.w3.org/2000/svg"
   xmlns="http://www.w3.org/2000/svg"
   xmlns:sodipodi="http://sodipodi.sourceforge.net/DTD/sodipodi-0.dtd"
   xmlns:inkscape="http://www.inkscape.org/namespaces/inkscape"
   id="svg2"
   version="1.1"
   inkscape:version="0.91 r13725"
   width="2048"
   height="2048"
   viewBox="0 0 2048 2048"
   sodipodi:docname="Gothic Glyph 13.svg">
  <metadata
     id="metadata8">
    <rdf:RDF>
      <cc:Work
         rdf:about="">
        <dc:format>image/svg+xml</dc:format>
        <dc:type
           rdf:resource="http://purl.org/dc/dcmitype/StillImage" />
        <dc:title></dc:title>
      </cc:Work>
    </rdf:RDF>
  </metadata>
  <defs
     id="defs6" />
  <sodipodi:namedview
     pagecolor="#ffffff"
     bordercolor="#666666"
     borderopacity="1"
     objecttolerance="10"
     gridtolerance="10"
     guidetolerance="10"
     inkscape:pageopacity="0"
     inkscape:pageshadow="2"
     inkscape:window-width="640"
     inkscape:window-height="480"
     id="namedview4"
     showgrid="false"
     inkscape:zoom="0.27783203"
     inkscape:cx="1024"
     inkscape:cy="1024"
     inkscape:current-layer="svg2" />
  <path
     style="fill:#00ff00"
     d="M 1118.1582,2015.2507 C 1095.7135,1997.2409 997.01614,1918.8395 898.83082,1841.023 603.51763,1606.9818 488.13232,1484.3616 405.86239,1317.1394 320.44522,1143.5173 287.10358,980.47169 295.69338,778.38629 c 7.28185,-171.3167 40.26652,-347.8327 69.51274,-371.9962 29.70811,-24.5467 43.63156,-22.5695 36.10155,5.1309 -3.45232,12.6975 -16.11758,73.8862 -28.14502,135.9711 -60.04279,309.9353 23.93866,547.42791 268.84567,760.27481 89.17548,77.4983 200.93803,158.2566 208.52169,150.673 3.40286,-3.3865 6.18731,-260.9926 6.18731,-572.42271 0,-541.5684 -0.84251,-567.0009 -19.33176,-583.7348 -15.51072,-14.0383 -29.88767,-16.0942 -72.73643,-10.409 -51.05506,6.7729 -53.25208,6.0819 -49.9365,-15.6393 2.73618,-17.9276 54.37309,-50.6359 244.62434,-154.9488 C 1167.0426,7.3980142 1202.5087,-8.9356158 1215.0238,3.5326742 c 12.5243,12.4751198 8.7746,20.2297198 -27.1588,56.1637198 -85.5073,85.509496 -104.8628,169.134296 -105.1812,454.444296 -0.171,154.487 2.115,182.1499 15.0628,182.1499 8.3963,0 83.437,-14.4797 166.757,-32.1747 83.32,-17.6951 156.5852,-32.7049 162.8117,-33.3514 8.4729,-0.8894 233.4443,262.8876 324.9422,380.98231 6.9754,9.0032 -12.5668,42.0467 -66.7609,112.8816 -95.8535,125.2883 -198.0319,278.0787 -296.8775,443.9292 -127.1616,213.3599 -141.6644,241.5701 -186.4896,362.7536 L 1158.9669,2048 l -40.8087,-32.7493 z m 155.3546,-677.837 c 72.865,-106.9434 168.1365,-273.3206 168.1365,-293.6256 0,-21.6288 -127.892,-186.92861 -168.7209,-218.07021 -50.5122,-38.5268 -117.4947,-67.363 -157.0965,-67.6298 l -33.3513,-0.342 0,388.24431 c 0,213.5344 3.4634,391.7231 7.6964,395.975 11.6808,11.7397 112.8034,-101.1522 183.3358,-204.6715 z"
     id="path4138"
     inkscape:connector-curvature="0" />
</svg>
