<?xml version="1.0" encoding="UTF-8" standalone="no"?>
<!-- Created with Inkscape (http://www.inkscape.org/) -->

<svg
   xmlns:dc="http://purl.org/dc/elements/1.1/"
   xmlns:cc="http://creativecommons.org/ns#"
   xmlns:rdf="http://www.w3.org/1999/02/22-rdf-syntax-ns#"
   xmlns:svg="http://www.w3.org/2000/svg"
   xmlns="http://www.w3.org/2000/svg"
   xmlns:sodipodi="http://sodipodi.sourceforge.net/DTD/sodipodi-0.dtd"
   xmlns:inkscape="http://www.inkscape.org/namespaces/inkscape"
   id="svg2"
   version="1.1"
   inkscape:version="0.91 r13725"
   width="2666"
   height="2666"
   viewBox="0 0 2666 2666"
   sodipodi:docname="Zephon Glyph.svg"
   inkscape:export-filename="C:\Users\craig\Pictures\SVG\Zephon Glyph.png"
   inkscape:export-xdpi="90"
   inkscape:export-ydpi="90">
  <metadata
     id="metadata8">
    <rdf:RDF>
      <cc:Work
         rdf:about="">
        <dc:format>image/svg+xml</dc:format>
        <dc:type
           rdf:resource="http://purl.org/dc/dcmitype/StillImage" />
        <dc:title></dc:title>
      </cc:Work>
    </rdf:RDF>
  </metadata>
  <defs
     id="defs6" />
  <sodipodi:namedview
     pagecolor="#ffffff"
     bordercolor="#666666"
     borderopacity="1"
     objecttolerance="10"
     gridtolerance="10"
     guidetolerance="10"
     inkscape:pageopacity="0"
     inkscape:pageshadow="2"
     inkscape:window-width="640"
     inkscape:window-height="480"
     id="namedview4"
     showgrid="false"
     inkscape:zoom="0.21155289"
     inkscape:cx="1333"
     inkscape:cy="1333"
     inkscape:current-layer="svg2" />
  <path
     style="fill:#00ff00"
     d="m 909.05728,2611.0752 c -1.619,-8.1434 -3.6601,-27.1433 -5.1874,-48.2891 -5.2403,-72.5525 -5.3248,-172.0877 -0.2275,-268.0159 12.6383,-237.847 54.3991,-473.4251 121.27622,-684.1339 69.6737,-219.5201 165.6448,-412.1374 287.3088,-576.6383 81.346,-109.98743 176.1506,-208.57213 279.674,-290.82523 0.4383,-0.3483 -1.5084,-1.1787 -20.781,-8.865 -57.73,-23.0239 -112.8653,-41.4359 -173.0613,-57.7923 l -11.9982,-3.2602 -7.8607,5.2706 c -100.0504,67.0839 -204.7392,161.9212 -296.0709,268.2101 C 954.43108,1095.347 846.93148,1269.072 761.52778,1464.8449 c -103.7152,237.7484 -173.7019,506.2459 -208.62,800.3511 -3.0483,25.6743 -7.2096,64.9177 -9.2856,87.5673 -0.4193,4.5747 -0.8132,8.3728 -0.8754,8.4402 -0.1181,0.1279 -0.3751,-7.0028 -1.2534,-34.7797 -1.1174,-35.3343 -0.628,-111.7122 1.0154,-158.4991 9.8946,-281.6857 57.8552,-579.8494 134.033,-833.2625 49.3977,-164.3265 109.6198,-308.491 179.9838,-430.86023 64.0404,-111.3719 136.9352,-204.448 215.99272,-275.7917 3.1769,-2.8669 5.8352,-5.3653 5.9073,-5.5521 0.072,-0.1867 -3.1511,-0.4836 -7.1625,-0.6596 -38.5383,-1.6915 -74.55362,-1.6277 -105.48912,0.1867 -119.1342,6.9878 -217.8524,36.8889 -296.7346,89.8789 l -9.0796,6.0993 -1.2678,-3.2835 c -2.0513,-5.3128 -7.7908,-16.3603 -11.5745,-22.2791 -15.9766,-24.9919 -41.5875,-51.143 -75.2289,-76.8158 -74.0263,-56.4916 -179.6626,-106.4074 -290.7105,-137.3678 -13.9911,-3.9008 -37.3603,-9.7511 -49.7909,-12.4648 -5.0196,-1.0957 -9.1264,-2.1291 -9.1264,-2.2963 0,-0.1672 1.6115,-1.0442 3.5812,-1.9488 1.9697,-0.9046 6.7882,-3.1342 10.7078,-4.9545 16.5758,-7.6981 38.6514,-16.2987 60.5706,-23.5982 98.1318,-32.6797 227.6008,-53.8376 368.753,-60.2616 54.4557,-2.4784 120.4693,-2.7413 174.2104,-0.6939 276.83642,10.5469 555.09342,69.4113 822.30072,173.955 88.5367,34.6396 181.8582,77.2402 264.2852,120.6441 4.5028,2.3711 5.8831,2.9258 5.6077,2.2532 -11.8684,-28.9711 -20.6593,-78.0618 -24.4883,-136.7484 -1.6034,-24.5753 -1.869,-34.3036 -1.8731,-68.6213 0,-34.3226 0.2963,-45.597 1.866,-70.0077 6.2532,-97.2494 23.8513,-169.9621 49.2237,-203.3857 3.3559,-4.4208 11.2871,-12.3622 12.8379,-12.8544 0.6089,-0.1933 2.16,0.4493 4.7591,1.9716 30.2794,17.7341 63.7857,31.1147 93.2804,37.2511 16.9416,3.5248 28.0469,4.6328 46.4318,4.6328 18.4907,0 29.3792,-1.1032 45.9786,-4.6586 58.816,-12.5977 119.5253,-50.9988 177.3519,-112.1822 5.7697,-6.104602 11.489,-12.147602 12.7096,-13.428802 1.5643,-1.642 0.4805,0.1254 -3.6722,5.9883 -49.2536,69.537202 -88.2666,153.511802 -110.7989,238.491802 -7.0395,26.5492 -14.1804,61.8655 -18.0229,89.1346 -5.5772,39.5791 -7.4943,68.9128 -7.0521,107.8995 0.2577,22.7126 0.4618,27.4733 1.9414,45.2855 5.8709,70.6766 24.9455,136.8869 55.4435,192.4514 23.3859,42.6067 52.8277,78.1984 90.5701,109.4885 21.5637,17.8772 47.1796,34.5615 75.7838,49.3599 6.6975,3.465 10.0301,5.4065 9.0109,5.2496 -42.0606,-6.4728 -97.6389,-6.4009 -150.8271,0.1952 -77.3651,9.5942 -146.0408,32.4437 -195.0521,64.8968 -13.801,9.13843 -25.7668,18.55043 -35.3314,27.79113 -2.7374,2.6446 -5.1312,4.8084 -5.3196,4.8084 -0.1884,0 -0.7884,-0.5693 -1.3333,-1.2651 -5.2135,-6.6572 -18.6015,-22.2082 -29.1454,-33.85433 -8.8161,-9.7375 -32.8831,-33.8015 -42.7771,-42.7716 -25.2079,-22.8541 -50.2075,-42.4079 -77.7397,-60.8055 -5.2693,-3.521 -9.8059,-6.4018 -10.0816,-6.4018 -0.7819,0 -14.2079,5.5525 -27.9292,11.5507 -103.2056,45.115 -208.0811,110.91583 -303.371,190.34033 -50.8196,42.3582 -100.2537,89.6906 -146.0574,139.8474 -87.4428,95.7532 -165.2028,205.5249 -231.5798,326.9152 -20.4744,37.4436 -44.5305,85.6293 -62.6338,125.4592 -101.3621,223.0106 -168.22782,478.4876 -200.16242,764.7697 -5.7063,51.155 -10.6355,106.9996 -13.6639,154.8023 -0.9161,14.4608 -0.8409,13.9261 -1.4965,10.6282 z m 933.58962,-914.6045 c -4.2867,-8.7419 -13.8569,-24.3211 -22.5938,-36.7802 -49.3033,-70.3081 -138.5914,-157.1442 -192.7879,-187.4936 -5.8648,-3.2842 -17.4475,-8.7227 -18.5994,-8.7331 -0.3177,0 -0.5776,-0.2132 -0.5776,-0.4673 0,-0.2542 0.2599,-0.4645 0.5776,-0.4673 1.1519,-0.011 12.7346,-5.4489 18.5994,-8.7331 54.2178,-30.3614 143.4651,-117.1578 192.7879,-187.4937 8.7369,-12.4591 18.3071,-28.0382 22.5938,-36.7802 0.7167,-1.4613 1.4243,-2.657 1.5726,-2.657 0.1483,0 0.8559,1.1957 1.5725,2.657 2.1381,4.3603 8.645,15.6177 12.9793,22.4552 30.0686,47.4343 89.9231,113.6467 144.6404,160.0043 20.4132,17.2945 42.4055,33.2149 57.7621,41.8144 5.8647,3.2842 17.4474,8.7227 18.5994,8.7331 0.3177,0 0.5776,0.2131 0.5776,0.4673 0,0.2541 -0.2599,0.4645 -0.5776,0.4673 -1.152,0.011 -12.7347,5.4489 -18.5994,8.7331 -49.6608,27.8094 -129.3155,103.2884 -181.4539,171.9414 -13.8908,18.2906 -27.6171,39.4629 -33.9279,52.3324 -0.7166,1.4614 -1.4242,2.6571 -1.5725,2.6571 -0.1483,0 -0.8559,-1.1957 -1.5725,-2.6571 z M 2359.4571,79.767168 c 0,-0.096 0.3639,-0.4599 0.8086,-0.8086 0.733,-0.5749 0.7493,-0.5585 0.1745,0.1744 -0.6037,0.7697 -0.9831,1.0145 -0.9831,0.6342 z m 4.8553,-6.1007 c 4.0692,-5.1313 13.9472,-16.8798 16.8697,-20.0643 2.8757,-3.1333 -4.8269,6.5313 -12.6049,15.8157 -7.5856,9.0549 -9.9219,11.3823 -4.2648,4.2486 z"
     id="path4138"
     inkscape:connector-curvature="0" />
</svg>
