<?xml version="1.0" encoding="UTF-8" standalone="no"?>
<!-- Created with Inkscape (http://www.inkscape.org/) -->

<svg
   xmlns:dc="http://purl.org/dc/elements/1.1/"
   xmlns:cc="http://creativecommons.org/ns#"
   xmlns:rdf="http://www.w3.org/1999/02/22-rdf-syntax-ns#"
   xmlns:svg="http://www.w3.org/2000/svg"
   xmlns="http://www.w3.org/2000/svg"
   xmlns:sodipodi="http://sodipodi.sourceforge.net/DTD/sodipodi-0.dtd"
   xmlns:inkscape="http://www.inkscape.org/namespaces/inkscape"
   id="svg2"
   version="1.1"
   inkscape:version="0.91 r13725"
   width="2666"
   height="2666"
   viewBox="0 0 2666 2666"
   sodipodi:docname="Capricorn Tattoo.svg"
   inkscape:export-filename="C:\Users\craig\Pictures\SVG\Capricorn Tattoo.png"
   inkscape:export-xdpi="90"
   inkscape:export-ydpi="90">
  <metadata
     id="metadata8">
    <rdf:RDF>
      <cc:Work
         rdf:about="">
        <dc:format>image/svg+xml</dc:format>
        <dc:type
           rdf:resource="http://purl.org/dc/dcmitype/StillImage" />
        <dc:title></dc:title>
      </cc:Work>
    </rdf:RDF>
  </metadata>
  <defs
     id="defs6" />
  <sodipodi:namedview
     pagecolor="#ffffff"
     bordercolor="#666666"
     borderopacity="1"
     objecttolerance="10"
     gridtolerance="10"
     guidetolerance="10"
     inkscape:pageopacity="0"
     inkscape:pageshadow="2"
     inkscape:window-width="640"
     inkscape:window-height="480"
     id="namedview4"
     showgrid="false"
     inkscape:zoom="0.21155289"
     inkscape:cx="1333"
     inkscape:cy="1333"
     inkscape:current-layer="svg2" />
  <path
     style="fill:#040404"
     d="M 521.79351,2126.8248 C 376.17018,2118.0376 270.87285,2084.4986 184.44567,2019.3738 69.684461,1932.8987 28.603461,1804.1347 66.989161,1651.219 c 7.7763,-30.9782 36.754899,-93.4721 55.860389,-120.4658 61.10861,-86.3389 155.88425,-156.8636 255.55468,-190.164 73.95011,-24.7072 171.1625,-36.1622 243.95931,-28.747 186.11917,18.9585 300.35521,124.2249 300.35521,276.7718 0,155.3679 -118.75209,280.3028 -301.75897,317.4699 -45.45409,9.2314 -142.46093,9.088 -179.17447,-0.2652 -28.16449,-7.1746 -46.10444,-17.7265 -46.10444,-27.1172 0,-6.7703 3.9138,-6.7215 56.61951,0.706 60.39277,8.5109 139.1068,5.4521 188.52421,-7.3261 69.76091,-18.0384 128.2243,-51.8225 174.137,-100.628 46.17245,-49.0815 66.83292,-99.2574 67.33419,-163.5268 0.50027,-64.095 -14.52441,-102.1192 -57.36146,-145.1726 -30.64884,-30.8036 -50.47835,-43.4411 -91.2275,-58.1402 -76.73521,-27.6799 -190.776,-27.8286 -285.43443,-0.3722 -93.12768,27.0125 -182.50071,81.6198 -249.06111,152.1773 -55.54881,58.8847 -85.541,119.5271 -93.39212,188.833 -12.223599,107.905 35.16373,205.5381 131.51955,270.9721 94.12954,63.922 218.5559,91.4773 372.93952,82.5907 204.68671,-11.7824 367.14254,-86.1456 510.18317,-233.5335 61.5882,-63.4599 147.2889,-172.8854 142.2303,-181.6041 -1.348,-2.3233 -12.8947,-19.4707 -25.6593,-38.1052 -12.7646,-18.6346 -35.669,-54.2096 -50.8986,-79.0557 -15.2297,-24.8461 -28.0838,-45.7514 -28.5645,-46.4563 -0.4811,-0.7052 -14.8782,2.2596 -31.9943,6.588 -43.7189,11.0555 -68.5663,10.3976 -93.7614,-2.483 -39.55605,-20.2223 -57.27674,-57.2752 -57.16279,-119.5246 0.0753,-42.5768 7.36246,-82.0719 23.64735,-128.2104 l 11.14624,-31.5797 -34.91147,-69.7456 -34.91157,-69.7457 -27.56919,20.7399 c -54.77839,41.209 -122.95777,66.4319 -199.93073,73.9642 -56.15179,5.4947 -104.32539,-1.5187 -144.92094,-21.0987 -65.43577,-31.5606 -96.2285,-80.4377 -96.2285,-152.7427 0,-98.14425 62.25831,-206.02025 171.28731,-296.79185 18.63455,-15.5142 33.881,-29.3725 33.881,-30.7964 0,-3.3251 -40.09536,-36.5058 -62.11517,-51.4029 -21.75094,-14.7153 -76.90721,-42.1524 -112.40689,-55.9162 -28.46892,-11.0378 -49.46903,-26.6693 -49.46903,-36.8225 0,-20.9985 31.93975,-22.4814 72.76226,-3.3782 29.23671,13.6814 98.85273,60.2034 149.15816,99.6772 l 35.57489,27.915 28.42257,-16.8995 c 74.71523,-44.4242 166.22457,-80.2553 248.56871,-97.3289 63.62459,-13.1922 144.98479,-14.0066 189.43939,-1.8964 64.247,17.5021 120.522,60.0861 143.8627,108.8629 6.1794,12.9134 12.1682,23.5013 13.3085,23.5285 1.1403,0.025 5.9638,-7.9973 10.7189,-17.8322 27.5143,-56.9072 80.5325,-97.1598 152.8483,-116.0457 34.3721,-8.9766 117.5304,-9.2251 165.6405,-0.4953 88.811,16.1157 203.1327,60.1728 274.3445,105.7264 l 19.9293,12.7487 41.0909,-32.0005 c 51.4624,-40.0776 112.7492,-80.775 144.4161,-95.8994 40.2231,-19.211 71.7267,-18.0614 71.7267,2.6173 0,12.7844 -18.1918,25.4796 -62.1276,43.3566 -64.1716,26.1106 -114.1243,56.0428 -149.3707,89.5048 l -13.8591,13.1573 28.9173,23.4228 c 77.5691,62.8299 135.8391,138.8934 162.6223,212.2811 31.3251,85.83275 20.0016,161.68165 -31.3941,210.28955 -47.0581,44.5055 -114.0762,62.6045 -199.2805,53.8177 -73.2307,-7.5519 -140.0715,-32.9066 -194.3045,-73.7053 l -26.4863,-19.9252 -9.1371,15.683 c -5.0254,8.6256 -21.0662,39.5407 -35.6462,68.7 l -26.509,53.0171 12.7519,37.3323 c 35.217,103.1001 30.5676,185.0416 -12.9091,227.5134 -28.0936,27.4442 -60.5346,32.7432 -115.069,18.7956 -16.0968,-4.1168 -30.556,-6.6884 -32.1315,-5.7147 -1.5756,0.9737 -10.1227,14.0828 -18.9937,29.1314 -8.8709,15.0486 -32.6407,52.0848 -52.8217,82.3028 l -36.6927,54.9419 36.641,49.1427 c 112.1949,150.4753 217.8639,241.8285 343.8702,297.2837 105.946,46.6268 203.0684,65.9621 330.2871,65.7544 125.531,-0.205 212.753,-20.9418 295.9154,-70.3533 104.6048,-62.1516 161.0183,-158.9454 154.661,-265.3657 -2.7017,-45.2271 -9.839,-72.2066 -30.3744,-114.819 -20.8597,-43.2853 -42.3455,-71.5105 -86.7508,-113.9623 -74.8173,-71.5259 -169.2498,-120.885 -273.2183,-142.809 -49.0014,-10.333 -167.6121,-9.203 -208.9329,1.9905 -94.9534,25.7223 -157.5957,84.0621 -175.1248,163.0967 -7.3666,33.2143 -3.211,93.0819 8.8406,127.3625 31.0327,88.2717 128.3638,165.464 239.693,190.0981 42.5666,9.4187 132.5851,11.5199 180.4207,4.2114 52.1317,-7.965 53.7742,-7.8875 52.3025,2.4668 -2.4502,17.2386 -65.6703,32.9724 -132.2937,32.9243 -69.9361,-0.05 -143.0256,-16.889 -203.9548,-46.9877 -94.5082,-46.6866 -158.3938,-119.8293 -180.887,-207.0976 -9.2833,-36.0168 -9.4274,-107.6679 -0.2828,-140.8698 39.2721,-142.5952 190.7138,-223.6915 388.0802,-207.8149 116.0166,9.3327 211.9615,43.9759 295.2843,106.6197 33.5073,25.1915 89.6718,83.9922 110.0647,115.2309 46.8779,71.8099 67.2276,139.4339 67.2384,223.4403 0.01,66.1459 -13.4452,117.4548 -44.6372,170.2351 -17.9371,30.3516 -70.2873,82.7963 -107.485,107.679 -104.4265,69.8542 -254.7011,101.6601 -427.6145,90.5053 -266.8962,-17.2175 -471.6004,-112.4055 -656.2823,-305.1729 l -43.4174,-45.3183 -48.252,49.6246 c -60.5882,62.3121 -109.8537,103.9311 -172.9921,146.1425 -137.16967,91.7051 -293.7655,142.7641 -473.76007,154.472 -57.58516,3.7456 -74.77153,3.9548 -116.76549,1.4208 z m 849.19459,-606.6071 c 18.4766,-31.5707 33.5939,-57.9661 33.5939,-58.6564 0,-0.6902 -15.9876,-13.4309 -35.5279,-28.3122 l -35.5278,-27.0568 -35.0576,26.7309 c -19.2817,14.702 -34.5134,28.6909 -33.8483,31.0864 3.0063,10.8271 66.5054,115.6987 69.4588,114.7142 1.8232,-0.6082 18.4322,-26.9355 36.9089,-58.5061 z m -249.5016,-25.4075 c 10.9732,-1.3533 19.4434,-3.58 18.8228,-4.9484 -0.6208,-1.3683 -13.2686,-24.491 -28.1065,-51.3836 -14.8377,-26.8927 -29.0856,-53.5544 -31.6618,-59.2484 -2.5761,-5.6938 -5.839,-10.3524 -7.2506,-10.3524 -1.4116,0 -9.0336,13.7808 -16.9376,30.624 -15.717,33.4924 -20.4133,61.0569 -13.3201,78.1815 5.7944,13.9889 28.5582,23.6662 49.0911,20.8697 5.1762,-0.7053 18.3894,-2.3891 29.3627,-3.7424 z m 477.4491,2.062 c 5.1011,0 13.6178,-4.3431 18.9261,-9.6515 8.8601,-8.86 9.5168,-11.7157 8.0077,-34.8221 -1.2546,-19.2108 -5.1402,-32.5584 -16.4106,-56.3721 l -14.7667,-31.2014 -31.9988,58.8995 c -17.5993,32.3947 -32.5235,61.1393 -33.165,63.8769 -0.7763,3.3136 4.2572,5.6782 15.0583,7.0737 8.9235,1.1531 20.4596,2.7282 25.6358,3.5005 5.1763,0.7721 11.6675,0.7947 14.4251,0.05 2.7574,-0.7446 9.1871,-1.3539 14.2881,-1.3539 z m -317.6429,-83.0246 c 16.0464,-12.5226 29.1754,-24.0525 29.1754,-25.6221 0,-1.5697 -9.74,-11.2238 -21.6444,-21.4536 -11.9044,-10.2298 -48.0633,-44.4146 -80.3533,-75.9663 -32.2899,-31.5518 -59.735,-56.3407 -60.9891,-55.0866 -3.4782,3.4781 97.2789,200.9376 102.5171,200.9086 1.1654,-0.01 15.2479,-10.2574 31.2943,-22.78 z m 189.6127,-75.2512 c 64.8032,-123.516 65.0553,-125.934 7.0148,-67.2546 -20.6662,20.8937 -56.2095,55.1982 -78.9851,76.2323 -22.7755,21.0341 -41.4101,39.5895 -41.4101,41.2343 0,4.2485 55.7805,47.6857 59.7852,46.5557 1.8242,-0.5145 25.942,-44.0602 53.5952,-96.7677 z m -93.6637,-10.188 c 47.8353,-47.4681 117.6896,-124.6896 117.6896,-130.1016 0,-2.0735 -18.3733,-32.7287 -40.8295,-68.123 -64.7747,-102.094 -100.9863,-169.74395 -113.859,-212.70925 -5.3629,-17.8994 -7.1196,-16.9337 -16.4936,9.0675 -13.8503,38.4171 -59.9697,123.74635 -105.577,195.33675 -25.846,40.5709 -46.9927,74.8623 -46.9927,76.203 0,7.2659 155.4781,170.7956 162.3862,170.7956 1.5917,0 21.2459,-18.2111 43.676,-40.469 z M 681.88586,1135.263 c 39.21505,-4.8881 90.4116,-21.5976 127.8962,-41.7424 26.90269,-14.4579 84.95131,-54.0001 89.08003,-60.6805 2.1954,-3.5522 -51.07591,-103.63145 -85.0384,-159.75915 -28.09246,-46.4268 -59.26725,-90.1193 -90.33563,-126.6081 l -24.17883,-28.3973 -17.1125,12.0015 c -9.41181,6.601 -36.64745,31.4833 -60.52361,55.2941 -106.87843,106.5859 -145.1187,213.4787 -104.4743,292.03595 14.42603,27.8826 53.1716,51.9843 93.0068,57.8547 29.9616,4.4155 36.26623,4.4157 71.68024,0 z m 1373.94164,-0.05 c 32.0588,-5.2011 52.1785,-14.4341 72.7254,-33.3734 22.6239,-20.8539 33.5217,-46.8597 35.599,-84.9515 3.6555,-67.02745 -31.8657,-140.74185 -105.1173,-218.14225 -33.5621,-35.463 -81.734,-77.3755 -88.9313,-77.3755 -5.6878,0 -41.025,39.9234 -65.6917,74.2173 -32.5441,45.246 -62.5933,94.6017 -102.499,168.3542 l -36.5332,67.51945 8.7702,6.9476 c 24.232,19.1961 83.5395,56.7413 104.9909,66.4655 61.9747,28.094 124.4259,38.8174 176.687,30.3386 z m -923.1485,-97.7512 c 105.3959,-153.07485 145.4832,-227.76405 155.8109,-290.30035 7.6783,-46.4939 -6.5454,-88.5837 -40.3455,-119.3875 -36.5662,-33.3248 -74.1595,-45.7432 -146.6092,-48.4305 -99.6083,-3.6946 -216.06891,27.9264 -321.44746,87.2784 -56.07917,31.5853 -54.77939,25.363 -13.00963,62.2809 44.69105,39.4999 121.53025,122.3592 169.70954,183.0058 l 36.22541,45.5995 8.23526,-9.8362 c 39.26078,-46.8928 73.98378,-121.1306 107.16618,-229.1216 8.4297,-27.4342 16.8883,-49.8804 18.797,-49.8804 7.3827,0 11.264,15.8122 11.259,45.8684 -0.01,78.808 -33.6827,188.6057 -82.9981,270.659 l -17.971,29.90085 34.4878,42.9653 c 26.0549,32.4595 35.5301,41.8838 38.7505,38.5422 2.3445,-2.4327 21.2172,-29.0474 41.9393,-59.1438 z m 486.2043,15.991 30.9963,-38.7296 -11.373,-17.73865 c -32.5002,-50.691 -68.1807,-139.8449 -81.6771,-204.0843 -8.2308,-39.1759 -9.7402,-113.834 -2.4497,-121.1622 6.8121,-6.847 9.7766,-1.3063 23.5361,43.9888 20.7514,68.312 30.265,93.6117 52.3771,139.2886 22.5513,46.584 55.4484,97.8785 62.7731,97.8785 2.2874,0 22.4949,-22.8697 44.9056,-50.8215 22.4105,-27.9518 75.8753,-86.0454 118.8106,-129.0966 l 78.064,-78.2751 -17.6126,-11.2731 c -34.9558,-22.3739 -108.9903,-56.3588 -158.9493,-72.9642 -89.5502,-29.7651 -184.0567,-39.8194 -248.9899,-26.4894 -59.9406,12.3051 -106.9189,47.037 -123.7167,91.4659 -11.9993,31.7373 -9.0312,81.8717 7.2412,122.308 24.5456,60.9951 50.1595,104.7386 131.2801,224.20165 44.2754,65.2025 55.4305,79.3958 59.1744,75.2911 2.5375,-2.7821 18.5619,-22.4865 35.6098,-43.7879 z"
     id="path4138"
     inkscape:connector-curvature="0" />
</svg>
