<?xml version="1.0" encoding="UTF-8" standalone="no"?>
<!-- Created with Inkscape (http://www.inkscape.org/) -->

<svg
   xmlns:dc="http://purl.org/dc/elements/1.1/"
   xmlns:cc="http://creativecommons.org/ns#"
   xmlns:rdf="http://www.w3.org/1999/02/22-rdf-syntax-ns#"
   xmlns:svg="http://www.w3.org/2000/svg"
   xmlns="http://www.w3.org/2000/svg"
   xmlns:sodipodi="http://sodipodi.sourceforge.net/DTD/sodipodi-0.dtd"
   xmlns:inkscape="http://www.inkscape.org/namespaces/inkscape"
   id="svg2"
   version="1.1"
   inkscape:version="0.91 r13725"
   width="2666"
   height="2666"
   viewBox="0 0 2666 2666"
   sodipodi:docname="Raziel Glyph.svg"
   inkscape:export-filename="C:\Users\craig\Pictures\SVG\Raziel Glyph.png"
   inkscape:export-xdpi="90"
   inkscape:export-ydpi="90">
  <metadata
     id="metadata8">
    <rdf:RDF>
      <cc:Work
         rdf:about="">
        <dc:format>image/svg+xml</dc:format>
        <dc:type
           rdf:resource="http://purl.org/dc/dcmitype/StillImage" />
        <dc:title></dc:title>
      </cc:Work>
    </rdf:RDF>
  </metadata>
  <defs
     id="defs6" />
  <sodipodi:namedview
     pagecolor="#ffffff"
     bordercolor="#666666"
     borderopacity="1"
     objecttolerance="10"
     gridtolerance="10"
     guidetolerance="10"
     inkscape:pageopacity="0"
     inkscape:pageshadow="2"
     inkscape:window-width="640"
     inkscape:window-height="480"
     id="namedview4"
     showgrid="false"
     inkscape:zoom="0.21155289"
     inkscape:cx="1333"
     inkscape:cy="1333"
     inkscape:current-layer="svg2" />
  <path
     style="fill:#00ff00"
     d="m 1701.0914,2606.6259 c -15.3568,-27.8457 -43.3802,-62.3647 -79.9136,-98.4372 -20.9458,-20.6815 -38.2181,-35.6083 -56.051,-48.4396 -10.7515,-7.736 -23.2385,-15.0259 -29.896,-17.4534 -2.1359,-0.7788 -2.5167,-1.0526 -1.8359,-1.3201 17.9654,-7.0581 39.4645,-22.2207 69.1401,-48.7617 7.7821,-6.9602 40.7125,-39.8854 42.4646,-42.4581 1.0167,-1.4927 1.4939,-3.3098 2.7994,-10.6605 1.6697,-9.4011 3.4622,-22.472 4.4078,-32.1442 0.7663,-7.8367 0.763,-37.9021 -0.01,-44.8446 -3.9386,-35.6114 -14.0655,-61.9462 -32.93,-85.6331 -4.5875,-5.7601 -15.8262,-16.939 -21.9202,-21.8034 -5.3343,-4.258 -16.687,-11.9424 -22.535,-15.2533 -28.804,-16.3081 -61.9682,-25.9952 -113.122,-33.0425 -4.7078,-0.6485 -8.6228,-1.2423 -8.7,-1.3195 -0.077,-0.077 3.9877,-5.7914 9.0331,-12.6984 171.1971,-234.3624 263.7345,-415.1221 280.4203,-547.7645 2.2303,-17.7296 2.7006,-25.3005 2.7157,-43.7179 0.022,-26.4155 -1.8399,-43.1087 -7.2357,-64.8845 -10.2929,-41.5386 -30.7779,-77.4545 -62.8261,-110.1513 -26.2406,-26.7716 -59.7463,-51.2109 -103.2094,-75.2814 l -6.8819,-3.8112 4.6777,-2.3456 c 49.2158,-24.6787 105.9295,-66.222 152.1015,-111.4157 14.8341,-14.5198 26.7957,-27.9782 32.7059,-36.7982 5.8702,-8.7604 9.8776,-18.182 11.4233,-26.8574 1.021,-5.7294 1.3509,-14.956 0.707,-19.7698 -2.3678,-17.7011 -15.3167,-34.6945 -32.7184,-42.9377 -20.6394,-9.77705 -52.8736,-11.48405 -75.7126,-4.0095 -9.7898,3.2039 -17.0141,7.3637 -23.6823,13.6368 -13.1982,12.4159 -21.6155,31.7574 -24.8166,57.0238 -0.4474,3.5317 -0.7008,4.3944 -1.2906,4.3944 -0.4037,0 -6.0981,0.5157 -12.6544,1.146 -140.1069,13.4707 -338.8562,44.1992 -526.3947,81.3852 -189.25926,37.5275 -356.77476,79.6285 -478.86886,120.3525 -8.9238,2.9764 -16.5294,5.5087 -16.9012,5.6273 -1.4375,0.458 32.2924,-16.6133 99.6047,-50.4122 74.8545,-37.5858 104.3964,-52.5786 123.4919,-62.6732 51.1679,-27.0495 78.6073,-45.1565 96.2244,-63.4979 18.5191,-19.2802 26.5355,-38.3384 27.5532,-65.505 1.1115,-29.672 -9.1541,-52.05285 -29.8263,-65.02615 -6.8074,-4.2721 -19.9097,-9.0433 -31.0787,-11.3171 -12.8602,-2.618 -24.2776,-3.6459 -40.563,-3.6517 -52.1493,-0.018 -121.9245,12.4341 -195.5661,34.9024 -3.6975,1.12805 -6.7757,1.99815 -6.8405,1.93335 -0.065,-0.065 3.2647,-2.12695 7.3988,-4.58265 59.5203,-35.3568 99.6314,-73.3991 125.4895,-119.0171 12.8981,-22.7543 20.0676,-40.2311 36.2203,-88.2926 15.8098,-47.0414 24.6689,-67.9688 38.9411,-91.9883 36.7109,-61.7831 98.5168,-112.357 196.72126,-160.9708 7.9323,-3.9267 14.5503,-7.3152 14.7068,-7.53 0.7816,-1.0733 3.5769,-17.6242 4.5012,-26.6515 0.7176,-7.0083 0.7176,-24.247 0,-30.873 -2.3115,-21.344 -8.1155,-40.8276 -18.7292,-62.8726 -6.8079,-14.1402 -14.3597,-27.1532 -32.62886,-56.2249 -5.7246,-9.1098 -10.3084,-16.5632 -10.1859,-16.5632 0.1225,0 1.5428,1.1199 3.1564,2.4887 35.38496,30.018 113.58116,58.1679 211.57236,76.1639 120.2222,22.0788 248.7804,26.0664 332.6167,10.3171 59.6257,-11.2011 115.7909,-36.7053 161.576,-73.3706 13.6994,-10.9706 34.0518,-30.4428 45.2756,-43.3172 24.241,-27.8061 44.9042,-59.0787 63.2822,-95.7737 22.9931,-45.9102 38.6302,-92.3284 49.8761,-148.055 l 2.1828,-10.8168 0.029,224.7866 c 0.016,123.6327 -0.069,224.7867 -0.1887,224.7867 -0.1196,0 -2.9083,-1.5327 -6.1971,-3.406 -59.964,-34.156 -123.6289,-38.6307 -175.6682,-12.3469 -36.8703,18.6223 -65.4274,51.3783 -82.7141,94.8759 -4.4055,11.0851 -9.8164,29.2731 -11.9332,40.1116 l -0.533,2.7285 -11.2734,-1.9104 c -27.5744,-4.6726 -53.8769,-7.903 -79.0094,-9.7037 -10.9383,-0.7837 -44.1647,-0.7926 -51.6052,-0.014 -24.3174,2.5453 -43.9525,7.1969 -64.4501,15.2683 -64.3192,25.3272 -111.742,78.7937 -121.6512,137.1547 -1.5712,9.2537 -1.9925,17.595 -1.6959,33.5772 0.383,20.6441 1.687,33.8972 4.6228,46.9869 7.8461,34.9834 26.4608,58.8357 58.3305,74.7428 24.1447,12.0514 52.3354,18.5971 94.4217,21.9242 9.8652,0.7799 61.2673,0.7713 73.4641,-0.012 53.5784,-3.4422 104.9568,-10.0395 167.4351,-21.4999 26.1263,-4.7922 73.7986,-14.4537 74.5117,-15.1008 0.2043,-0.1854 -0.4308,-1.9344 -1.4113,-3.8866 -13.688,-27.2523 -30.043,-80.0403 -43.1306,-139.2104 -4.427,-20.0163 -12.8428,-61.7895 -12.8428,-63.7489 0,-0.2914 3.0186,3.1838 6.7082,7.7226 41.7394,51.3475 93.9591,102.3195 153.9664,150.2874 89.4655,71.516 190.3801,130.8194 267.1633,157.00115 l 7.56,2.5778 -5.0812,0.3147 c -55.0912,3.4119 -125.2667,24.1434 -186.2626,55.0264 -56.8667,28.7924 -101.1996,67.7341 -119.8675,105.2908 -14.1582,28.4839 -12,51.4506 6.6727,71.0082 16.4517,17.2312 42.7042,27.8832 77.5895,31.482 17.242,1.7788 42.7111,1.1531 62.5346,-1.5363 1.4254,-0.1934 2.5915,-0.2689 2.5915,-0.168 0,0.101 -1.7954,3.0589 -3.9898,6.5733 -5.9107,9.4658 -12.2626,20.6214 -17.2629,30.3182 l -4.4372,8.6048 0,10.1897 0,10.1898 4.3944,3.2503 c 7.1155,5.2632 10.8314,8.3957 16.4966,13.907 6.1555,5.9884 9.9621,10.8185 12.493,15.8522 3.6099,7.1796 3.3062,-1.3216 3.4567,96.7729 l 0.1345,87.5975 -8.2876,8.627 c -48.8571,50.8574 -91.1374,103.9609 -134.6164,169.0762 -54.1458,81.0902 -88.7256,149.1161 -105.3884,207.322 -6.8787,24.0286 -9.773,42.6647 -8.6084,55.4299 1.4875,16.3063 7.6315,34.6941 19.6544,58.8226 14.2004,28.4985 32.9628,57.8806 65.6447,102.8004 1.9101,2.6253 3.47,4.9577 3.4665,5.1831 0,0.2255 -1.4453,2.0324 -3.2043,4.0155 -27.6813,31.209 -40.0607,76.1671 -33.9399,123.2591 1.3393,10.3045 5.4476,27.878 7.0938,30.3447 1.0672,1.599 9.3184,11.1792 17.3471,20.1411 8.8982,9.9324 36.4029,37.5593 45.6107,45.8133 29.4565,26.4049 50.795,41.4542 69.176,48.7874 0.7665,0.3059 0.6371,0.4393 -0.9014,0.9302 -3.1402,1.0018 -12.8606,6.0412 -18.9229,9.8103 -19.3179,12.0101 -42.3237,31.1131 -67.9945,56.4602 -36.4903,36.0297 -64.1248,70.0512 -79.8031,98.2475 l -3.6496,6.5635 -3.5151,-6.3739 z m -397.5175,-962.6955 c -15.3569,-27.8457 -43.3802,-62.3647 -79.9136,-98.4372 -20.9458,-20.6815 -38.2181,-35.6083 -56.051,-48.4395 -10.7516,-7.7361 -23.2385,-15.026 -29.896,-17.4535 -2.1358,-0.7788 -2.5167,-1.0526 -1.8359,-1.32 22.3019,-8.7619 52.3145,-31.5808 88.2285,-67.0811 36.8473,-36.4227 65.9435,-72.5095 80.533,-99.8816 l 2.4219,-4.544 3.6637,6.5889 c 15.6146,28.0814 43.1895,62.0716 79.3716,97.8367 35.9685,35.5542 65.5255,58.0217 88.2644,67.0935 0.7665,0.3058 0.6372,0.4393 -0.9014,0.9302 -3.1401,1.0019 -12.8605,6.0413 -18.9228,9.8103 -19.318,12.0101 -42.3237,31.1132 -67.9946,56.4601 -36.4902,36.0298 -64.1247,70.0514 -79.803,98.2476 l -3.6496,6.5635 -3.5152,-6.3739 z"
     id="path4138"
     inkscape:connector-curvature="0" />
</svg>
