<?xml version="1.0" encoding="UTF-8" standalone="no"?>
<!-- Created with Inkscape (http://www.inkscape.org/) -->

<svg
   xmlns:dc="http://purl.org/dc/elements/1.1/"
   xmlns:cc="http://creativecommons.org/ns#"
   xmlns:rdf="http://www.w3.org/1999/02/22-rdf-syntax-ns#"
   xmlns:svg="http://www.w3.org/2000/svg"
   xmlns="http://www.w3.org/2000/svg"
   xmlns:sodipodi="http://sodipodi.sourceforge.net/DTD/sodipodi-0.dtd"
   xmlns:inkscape="http://www.inkscape.org/namespaces/inkscape"
   id="svg2"
   version="1.1"
   inkscape:version="0.91 r13725"
   width="2666"
   height="2666"
   viewBox="0 0 2666 2666"
   sodipodi:docname="Trickster Glyph.svg"
   inkscape:export-filename="C:\Users\craig\Pictures\SVG\Trickster Glyph.png"
   inkscape:export-xdpi="90"
   inkscape:export-ydpi="90">
  <metadata
     id="metadata8">
    <rdf:RDF>
      <cc:Work
         rdf:about="">
        <dc:format>image/svg+xml</dc:format>
        <dc:type
           rdf:resource="http://purl.org/dc/dcmitype/StillImage" />
        <dc:title></dc:title>
      </cc:Work>
    </rdf:RDF>
  </metadata>
  <defs
     id="defs6" />
  <sodipodi:namedview
     pagecolor="#ffffff"
     bordercolor="#666666"
     borderopacity="1"
     objecttolerance="10"
     gridtolerance="10"
     guidetolerance="10"
     inkscape:pageopacity="0"
     inkscape:pageshadow="2"
     inkscape:window-width="640"
     inkscape:window-height="480"
     id="namedview4"
     showgrid="false"
     inkscape:zoom="0.21155289"
     inkscape:cx="1333"
     inkscape:cy="1333"
     inkscape:current-layer="svg2" />
  <path
     style="fill:#00ff00"
     d="m 574.95916,2600.5704 c -25.9857,-24.6819 -62.4276,-61.7844 -86.9455,-88.5215 -139.3658,-151.9805 -238.4459,-313.5285 -295.4076,-481.6561 -15.0349,-44.3769 -24.1547,-78.3838 -41.2169,-153.6933 -44.2898,-195.4878 -69.416202,-369.5982 -74.020802,-512.9201 -1.2746,-39.6693 -1.0846,-63.0921 0.7368,-90.8347 12.9548,-197.3284 101.879902,-422.5453 235.366302,-596.1029 12.8127,-16.6588 20.235,-25.083 29.711,-33.7215 20.7552,-18.9207 43.964,-30.8369 67.8792,-34.8516 3.394,-0.5698 10.6443,-1.3594 16.112,-1.7548 15.6093,-1.1286 24.8882,-3.4488 36.4635,-9.1177 17.4481,-8.5449 32.9352,-22.865 47.9795,-44.3642 13.6179,-19.4606 24.4445,-41.0073 68.6376,-136.5995 16.6928,-36.1075 19.851,-42.6043 24.6571,-50.7231 12.7609,-21.5563 28.7953,-41.4327 51.0758,-63.3141 98.3857,-96.6234 278.9261,-180.2139 477.55624,-221.109301 121.3996,-24.9947 243.1612,-33.5196 359.8832,-25.1965 189.7697,13.532 358.6343,71.092901 495.111,168.768701 35.3601,25.3071 59.7667,46.3532 94.5744,81.5527 22.6152,22.8696 40.9755,42.8976 64.4665,70.3215 101.9276,118.9928 211.8188,281.655 304.2892,450.4123 30.653,55.9413 44.0886,83.6341 51.8628,106.8976 3.6863,11.0307 5.0368,17.4701 5.0733,24.1897 0.026,4.7119 -0.1133,5.5317 -1.5279,9.0104 -1.8314,4.5041 -4.0621,8.1185 -8.1492,13.2046 -3.6475,4.539 -6.0671,9.5331 -6.7568,13.9461 -1.3706,8.7705 2.4883,18.3532 17.5438,43.5661 10.0789,16.8787 16.8999,28.8537 22.8961,40.1964 8.4739,16.0299 15.9147,26.1839 31.0889,42.4256 7.6319,8.1688 8.6852,9.5116 10.649,13.5758 7.4178,15.3524 12.1769,45.8004 14.0537,89.9147 1.6129,37.9092 0.8688,90.5844 -1.7328,122.6762 -4.8198,59.4519 -17.003,110.5057 -38.8867,162.9551 -6.3754,15.2802 -20.2267,44.6032 -55.1288,116.7073 -32.5933,67.3342 -45.8332,95.0521 -63.5018,132.941 -107.5211,230.5709 -182.8189,435.2104 -247.7125,673.2172 -4.8408,17.7546 -4.7207,17.9467 -3.2402,-5.1835 9.6911,-151.4061 32.684,-286.9931 72.0796,-425.0473 11.914,-41.7506 20.7706,-69.9129 45.4879,-144.6444 24.3496,-73.6199 29.29,-90.4796 40.6489,-138.7204 16.1853,-68.7388 24.9656,-114.324 30.5703,-158.714 7.4967,-59.3745 8.8678,-120.1393 4.4613,-197.7136 -8.1117,-142.8028 -32.5235,-272.6044 -70.19,-373.2123 -32.5775,-87.0147 -80.5842,-163.3802 -161.5324,-256.9536 -31.0394,-35.8804 -61.2091,-68.5116 -135.3311,-146.3723 -37.8727,-39.7831 -51.7507,-53.1743 -76.285,-73.6093 -43.2899,-36.057 -84.141,-60.5876 -141.8901,-85.203 -79.8714,-34.0452 -171.7448,-55.6191 -268.5549,-63.0627 -28.6736,-2.2047 -42.3595,-2.7606 -75.7779,-3.078 -55.4232,-0.5265 -102.3086,1.9395 -161.5432,8.4966 -147.5431,16.3327 -277.6048,49.232 -378.52854,95.7493 -42.1377,19.422 -78.214,40.8968 -110.5814,65.8247 -132.7974,102.2748 -262.7347,247.0964 -382.3247,426.12 -46.1457,69.0791 -72.3182,113.1436 -96.3223,162.1696 -47.6108,97.2405 -74.4746,191.4314 -81.1692,284.599 -1.3627,18.9639 -1.7147,40.6081 -1.2307,75.6611 0.9192,66.5595 3.7903,123.1189 9.4034,185.2419 26.3402,291.522 103.6188,556.9784 223.2602,766.9117 26.4324,46.3806 56.3012,92.1183 85.9162,131.5623 11.1851,14.8973 28.3252,36.5401 37.239,47.0217 1.2123,1.4255 2.1216,2.5901 2.0207,2.588 -0.1008,0 -6.0703,-5.5953 -13.2655,-12.4296 z m 769.78394,-47.3491 c -3.9533,-0.66 -11.0804,-3.079 -23.8043,-8.0795 -13.8306,-5.4353 -20.0529,-7.5127 -29.6688,-9.9052 -41.3545,-10.2894 -83.7469,-35.1368 -119.1537,-69.8392 -16.0616,-15.7421 -28.6971,-31.0185 -40.4242,-48.8731 -12.1124,-18.4412 -37.6282,-64.1571 -66.5417,-119.2206 -60.8209,-115.8286 -98.22634,-235.3473 -106.83784,-341.3707 -2.3726,-29.2112 -2.4623,-64.2313 -0.2465,-96.2651 6.977,-100.8663 30.9109,-191.6443 72.36704,-274.4788 29.8359,-59.6158 64.4886,-108.7991 111.2869,-157.9518 26.2254,-27.5447 81.8013,-76.5924 135.861,-119.9018 l 11.2412,-9.0059 -1.5877,-2.3254 c -8.4531,-12.3808 -36.0805,-50.1598 -51.5204,-70.4515 -38.1352,-50.1188 -71.3803,-90.8573 -121.4632,-148.8406 -2.9315,-3.394 -4.7884,-5.7043 -4.1263,-5.134 0.6621,0.5703 7.9793,6.6699 16.2606,13.5549 72.6318,60.385 139.3114,119.4287 193.8711,171.6699 6.6699,6.3864 10.1904,9.4317 10.6139,9.1812 0.3485,-0.2061 4.2991,-3.0762 8.7791,-6.3779 77.094,-56.8161 160.4942,-109.3363 236.2197,-148.7561 l 3.9493,-2.0559 -2.2215,2.0395 c -4.3121,3.9588 -34.6846,29.1843 -65.9045,54.7361 -55.6274,45.528 -87.0984,71.9816 -115.7649,97.3087 -13.9284,12.3058 -34.8387,31.2924 -35.3193,32.0701 -0.1695,0.2742 5.6532,6.6048 12.9392,14.0679 19.7223,20.2019 32.9717,34.0314 46.3172,48.3453 164.7305,176.6834 254.6936,336.156 269.0232,476.8823 2.0055,19.6957 2.5665,46.5458 1.3305,63.683 -13.0642,181.1363 -109.537,366.4778 -290.0947,557.3241 -11.2178,11.857 -34.227,35.2834 -46.2421,47.0805 l -9.2093,9.0422 1.7333,3.7932 c 4.6664,10.2114 8.1596,20.5152 9.073,26.7617 0.9786,6.693 -0.5823,10.3926 -4.7972,11.3707 -2.1766,0.5051 -2.4668,0.5012 -5.9381,-0.078 z m -39.6505,-147.748 c 115.4914,-81.8891 190.5616,-187.308 221.6458,-311.2509 1.1149,-4.4456 1.9491,-8.3171 1.8537,-8.6031 -0.095,-0.2863 -0.7095,0.347 -1.3647,1.4071 -3.9595,6.4067 -13.4293,16.9133 -21.4591,23.8089 -21.9329,18.8346 -50.2465,29.7475 -86.8854,33.4882 -15.0051,1.5319 -51.344,1.0436 -79.2336,-1.0646 -102.0472,-7.7142 -182.0787,-37.3325 -236.4665,-87.5124 -2.8509,-2.6304 -6.2205,-5.74 -7.4879,-6.9103 l -2.3046,-2.1279 1.7312,5.8302 c 5.9215,19.9422 18.1419,54.2198 26.9825,75.6843 37.6464,91.4035 92.5342,183.8716 166.0773,279.7862 l 4.6372,6.0479 2.3112,-1.579 c 1.2711,-0.8685 5.7545,-4.0205 9.9629,-7.0046 z m 94.5863,-379.2479 c 7.974,-4.1736 18.5603,-11.9658 30.0647,-22.1296 16.4781,-14.5579 52.7583,-52.884 67.5556,-71.3651 12.9462,-16.1692 20.4891,-30.8429 22.2572,-43.298 1.4109,-9.9394 2.0537,-76.9168 0.8542,-89.0048 -3.2059,-32.3094 -12.0193,-66.8428 -21.396,-83.8365 -14.9339,-27.0654 -52.6466,-38.7211 -136.1629,-42.0835 -16.7578,-0.6746 -60.0533,-0.3499 -65.9046,0.4943 -17.5593,2.5336 -30.4778,6.9647 -43.9363,15.0704 -36.0154,21.691 -72.9043,54.5792 -102.6565,91.5234 -7.0464,8.7496 -14.7385,18.8499 -14.5163,19.0609 0.095,0.091 3.5255,-1.784 7.6221,-4.1658 27.9512,-16.2516 61.5261,-32.9083 87.058,-43.1901 29.5698,-11.908 58.7096,-20.0889 82.5788,-23.1839 15.7356,-2.0403 35.3506,-2.2585 48.0269,-0.5342 27.6845,3.7657 49.6052,14.1351 65.8886,31.1678 14.6306,15.3039 23.8542,34.2907 29.3862,60.4914 3.4374,16.2805 3.5267,32.1069 0.2638,46.7556 -1.5414,6.9195 -6.2265,23.7766 -8.7302,31.4104 -3.6246,11.0522 -3.8405,11.3683 -16.1917,23.7089 -5.9856,5.9805 -14.5484,14.1803 -19.0284,18.2219 -19.5149,17.6049 -24.7911,23.7775 -25.5094,29.8433 -0.3401,2.8714 0.4826,4.6489 3.7818,8.1714 1.2863,1.3733 2.5914,2.9821 2.9003,3.5753 1.0521,2.0201 0.5639,6.9117 -2.115,21.1884 -3.3963,18.1006 -3.437,18.3991 -2.7571,20.1886 1.6239,4.2737 5.0055,4.8822 10.6662,1.9194 z m -110.3674,-75.0147 c 20.9623,-3.9765 45.8664,-20.5585 54.4459,-36.2521 2.7012,-4.9409 4.4479,-10.6359 4.1178,-13.4258 -0.4243,-3.5852 -1.4557,-5.0801 -8.4478,-12.2448 -3.5772,-3.6655 -7.5075,-7.9974 -8.7341,-9.6265 -1.2267,-1.6291 -4.5584,-7.526 -7.404,-13.1041 -6.2911,-12.3324 -7.987,-14.9578 -12.7576,-19.7513 -6.187,-6.2166 -13.9471,-11.107 -21.9769,-13.8499 -2.9839,-1.0193 -4.3656,-1.1789 -10.1202,-1.1688 -6.2357,0.011 -6.9662,0.1159 -11.3543,1.6325 -8.5187,2.9442 -15.8912,7.5693 -23.8998,14.9937 -12.2753,11.3796 -19.3053,25.9952 -20.3418,42.2917 -0.8515,13.3868 6.4073,31.9846 16.9879,43.5246 7.0393,7.6777 19.5233,14.4013 31.4499,16.9382 4.5974,0.9779 12.9998,0.9978 18.035,0.042 z M 1072.037,1782.0329 c 3.0834,-5.6423 13.4498,-22.6998 20.1368,-33.1347 33.2438,-51.8754 72.5701,-97.4274 109.0019,-126.2581 29.8364,-23.6114 54.2848,-34.2725 88.1196,-38.4259 23.1971,-2.8477 32.2003,-4.2695 56.1097,-8.8614 17.2356,-3.3101 22.5716,-4.159 32.7504,-5.21 28.3529,-2.9277 48.504,-2.1183 66.3314,2.6643 2.8876,0.7747 5.2503,1.3252 5.2503,1.2233 0,-1.2559 -24.7735,-51.6622 -34.5803,-70.3602 -26.0383,-49.6455 -61.559,-109.3883 -93.4123,-157.1118 l -5.8928,-8.8287 -2.1156,2.1642 c -21.6735,22.1717 -39.364,41.1202 -54.3431,58.2078 -89.1915,101.7467 -146.5984,203.5543 -174.6685,309.7636 -4.5426,17.1879 -8.7243,36.8076 -11.6878,54.8355 -1.9446,11.8302 -3.3502,22.4252 -2.974,22.4175 0.1602,0 1.0486,-1.3916 1.9743,-3.0854 z m 281.9287,-942.6281 c -25.3672,-1.0152 -49.2353,-11.2617 -67.5688,-29.0071 -16.0825,-15.5667 -25.5946,-33.7042 -29.5243,-56.297 -1.3043,-7.4987 -1.1642,-24.1567 0.2698,-32.0883 4.0996,-22.6741 14.2268,-42.801 29.4023,-58.4339 15.2317,-15.6908 31.6328,-24.1119 51.13,-26.2522 19.0278,-2.0888 45.1681,5.8564 62.6364,19.038 5.4898,4.1427 13.8233,12.5535 18.0872,18.2552 10.8963,14.5704 19.635,35.088 25.6522,60.2282 2.8081,11.7328 3.45,16.7664 3.4305,26.9048 -0.019,9.8327 -0.6244,14.4643 -2.9367,22.4619 -5.9263,20.4972 -21.5602,37.5931 -42.7213,46.7161 -14.1597,6.1045 -31.2873,9.1374 -47.8573,8.4743 z"
     id="path4138"
     inkscape:connector-curvature="0" />
</svg>
