<?xml version="1.0" encoding="UTF-8" standalone="no"?>
<!-- Created with Inkscape (http://www.inkscape.org/) -->

<svg
   xmlns:dc="http://purl.org/dc/elements/1.1/"
   xmlns:cc="http://creativecommons.org/ns#"
   xmlns:rdf="http://www.w3.org/1999/02/22-rdf-syntax-ns#"
   xmlns:svg="http://www.w3.org/2000/svg"
   xmlns="http://www.w3.org/2000/svg"
   xmlns:sodipodi="http://sodipodi.sourceforge.net/DTD/sodipodi-0.dtd"
   xmlns:inkscape="http://www.inkscape.org/namespaces/inkscape"
   id="svg2"
   version="1.1"
   inkscape:version="0.91 r13725"
   width="2666"
   height="2666"
   viewBox="0 0 2666 2666"
   sodipodi:docname="Rahab Glyph.svg"
   inkscape:export-filename="C:\Users\craig\Pictures\SVG\Rahab Glyph.png"
   inkscape:export-xdpi="90"
   inkscape:export-ydpi="90">
  <metadata
     id="metadata8">
    <rdf:RDF>
      <cc:Work
         rdf:about="">
        <dc:format>image/svg+xml</dc:format>
        <dc:type
           rdf:resource="http://purl.org/dc/dcmitype/StillImage" />
        <dc:title></dc:title>
      </cc:Work>
    </rdf:RDF>
  </metadata>
  <defs
     id="defs6" />
  <sodipodi:namedview
     pagecolor="#ffffff"
     bordercolor="#666666"
     borderopacity="1"
     objecttolerance="10"
     gridtolerance="10"
     guidetolerance="10"
     inkscape:pageopacity="0"
     inkscape:pageshadow="2"
     inkscape:window-width="640"
     inkscape:window-height="480"
     id="namedview4"
     showgrid="false"
     inkscape:zoom="0.21155289"
     inkscape:cx="1333"
     inkscape:cy="1333"
     inkscape:current-layer="svg2" />
  <path
     style="fill:#00ff00"
     d="m 1453.1871,2563.4669 c -128.4871,-3.7043 -271.1876,-37.3389 -394.451,-92.9725 -46.6061,-21.0351 -94.36373,-47.134 -124.26113,-67.907 -45.301,-31.4755 -91.5032,-74.5535 -137.1789,-127.9029 -58.3995,-68.2107 -116.8043,-155.1897 -159.5,-237.5344 -2.3124,-4.4598 -4.0813,-8.0013 -3.931,-7.8701 0.1503,0.1311 3.6849,5.4971 7.8546,11.9244 89.2718,137.6047 167.3567,221.7702 256.7435,276.7363 43.0438,26.4687 88.3241,46.7093 151.91713,67.9081 43.1825,14.3949 77.951,24.0065 118.7672,32.8323 92.3419,19.9677 197.5085,30.1334 302.6417,29.2543 29.3951,-0.2457 35.1497,-0.5559 55.7735,-3.0061 76.9236,-9.1389 157.7164,-38.7131 262.1315,-95.9532 98.2162,-53.8418 192.5087,-123.9711 268.5562,-199.7365 54.6901,-54.4873 88.0748,-98.6834 114.5744,-151.6786 24.48,-48.9564 38.9479,-97.532 43.6137,-146.4318 0.7805,-8.1803 0.7849,-32.8231 0.01,-39.5891 -3.4893,-30.3514 -16.4661,-63.946 -36.0198,-93.249 -11.6063,-17.393 -25.2608,-33.0526 -37.0572,-42.499 -35.3251,-28.2875 -94.6794,-49.9415 -171.7078,-62.6433 -52.2057,-8.6086 -90.9418,-9.8577 -140.2311,-4.5219 -59.2911,6.4186 -142.2954,25.369 -210.7899,48.1248 -15.606,5.1847 -125.5549,44.6431 -208.7112,74.9021 -69.0016,25.1083 -114.7024,39.9559 -161.2181,52.3776 -33.9109,9.0556 -69.5031,16.0118 -103.9809,20.322 -25.4727,3.1844 -42.9002,3.8065 -96.8263,3.4564 -37.1136,-0.2409 -45.5706,-0.509 -63.43793,-2.0109 -22.0646,-1.8547 -57.8846,-7.8326 -80.0791,-13.3641 -32.6282,-8.132 -52.8012,-15.4312 -80.4236,-29.0997 -23.3624,-11.5606 -42.6273,-23.1713 -67.7307,-40.8206 -36.8528,-25.91 -58.439,-43.7221 -94.4536,-77.9398 -17.7731,-16.8864 -32.6948,-32.9144 -45.4937,-48.8666 -30.2741,-37.7328 -49.8807,-67.065 -65.3407,-97.7518 -22.2031,-44.0711 -37.6814,-88.6603 -49.5991,-142.8829 -10.376,-47.2084 -15.9466,-84.0395 -19.2257,-127.1143 -1.1793,-15.4931 -1.1808,-60.3378 0,-74.8854 2.9779,-36.7631 8.0993,-62.6713 18.3857,-93.0104 36.6029,-107.95752 120.0749,-193.75192 246.19,-253.03992 106.4204,-50.0292 243.2476,-82.308 412.34643,-97.2763 38.1539,-3.3773 82.8795,-6.1674 118.7672,-7.4089 8.1325,-0.2814 16.557,-0.6321 18.7213,-0.7793 l 3.9351,-0.2678 0,-115.3058 0,-115.3059 -7.5124,-2.2372 c -59.381,-17.6842 -145.4179,-20.1581 -258.816,-7.442 -139.14113,15.6029 -313.59123,55.815 -445.05763,102.5893 -6.5449,2.3286 -12.0413,4.2338 -12.2143,4.2338 -0.173,0 -0.4606,-2.4147 -0.6389,-5.366 -2.5709,-42.53 -16.0649,-85.5589 -39.3024,-125.3256 -49.3486,-84.4553 -146.4567,-159.8762 -279.1271,-216.7917 -63.5329,-27.2555 -133.3455,-49.2177 -196.261201,-61.7413 -6.5918,-1.3121 -11.035,-2.3998 -10.4935,-2.5688 0.5166,-0.1613 6.5199,-1.0375 13.3406,-1.9472 35.350101,-4.7148 68.261201,-7.4638 113.043501,-9.4421 18.6292,-0.823 100.2754,-0.8207 121.8676,0 97.688,3.7285 184.3136,11.0182 333.1682,28.0366 29.2787,3.3474 48.5905,5.6223 129.2607,15.2267 239.45933,28.5095 351.63733,39.5325 485.32383,47.6894 135.9506,8.2951 267.1013,9.727 414.2543,4.523 289.2658,-10.23 515.9406,-48.326 680.8146,-114.4209 18.3648,-7.3621 41.2006,-17.2698 50.8528,-22.0633 l 2.8767,-1.4286 -6.9611,7.079 c -40.2824,40.9636 -62.9608,82.1655 -69.1375,125.6076 -5.1813,36.4418 1.6586,73.8772 20.5238,112.328 25.1552,51.2714 69.8017,102.9387 139.2843,161.1871 21.2284,17.7961 39.6076,32.2439 80.132,62.9914 32.0084,24.2859 51.7485,39.7522 51.3042,40.1965 -0.072,0.072 -1.61,-0.5348 -3.4186,-1.3478 -39.5186,-17.7639 -103.0223,-39.1402 -167.1297,-56.2585 -192.5068,-51.404 -462.657,-88.5754 -683.2692,-94.0146 -24.4285,-0.6022 -80.1536,-0.319 -97.7802,0.497 -15.5149,0.7183 -28.418,1.4577 -30.1156,1.7257 -1.427,0.2253 -1.7658,0.776 -7.2549,11.7914 -21.5545,43.2555 -32.9197,84.5849 -36.887,134.1381 -0.7878,9.8403 -0.7824,41.4162 0.01,51.752 4.9838,65.0977 23.2197,127.3957 57.142,195.2103 19.0706,38.1244 45.9278,81.3222 72.0567,115.8977 1.9329,2.5578 3.2803,4.6506 2.994,4.6506 -0.2863,0 -7.5381,-1.1705 -16.1154,-2.6011 -79.9495,-13.335 -156.6258,-21.6675 -230.4729,-25.0457 -45.6555,-2.0885 -98.262,-1.8259 -142.6161,0.712 -136.0633,7.7854 -261.2455,37.3836 -369.65693,87.40182 -69.8138,32.2102 -117.4939,63.797 -146.6833,97.1738 -19.3654,22.1433 -28.5837,43.1706 -31.9933,72.9774 -1.0787,9.4305 -1.083,28.919 -0.01,39.8276 3.4989,35.5279 13.8403,75.0822 31.0512,118.7672 7.2866,18.4949 14.4654,31.3739 26.4537,47.4592 26.4032,35.4262 58.5395,60.0529 94.3288,72.2859 18.6746,6.3831 35.4448,9.3455 55.766,9.8508 18.92353,0.4705 34.83483,-1.7498 63.85753,-8.9109 48.5266,-11.9738 113.4199,-34.5438 213.6924,-74.3225 29.3247,-11.6334 43.7277,-17.1296 61.5231,-23.4772 113.8064,-40.5949 252.9663,-72.8707 355.5862,-82.4722 64.1801,-6.005 162.0891,-8.5488 239.2038,-6.2149 103.4989,3.1323 200.7451,17.6453 265.1991,39.5782 36.79,12.5192 72.9319,30.2623 104.1235,51.1174 29.0544,19.426 50.8213,39.0633 68.1021,61.439 18.8396,24.394 38.0951,58.9848 52.4396,94.2029 19.0404,46.7473 31.6097,97.1705 36.4425,146.1933 1.873,18.9997 2.1618,25.2967 2.1542,46.9822 -0.01,22.3763 -0.4094,29.6085 -2.622,47.2207 -11.6767,92.9483 -52.3316,200.3506 -112.2114,296.4411 -37.2824,59.8278 -80.5537,113.5338 -130.2475,161.6558 -68.7483,66.5741 -152.5211,129.2461 -239.3715,179.0787 -169.2707,97.1231 -345.7543,145.3605 -514.0693,140.508 z M 2172.468,1184.7045 c -12.4831,-24.1801 -36.4288,-57.3498 -66.0488,-91.4914 -24.0915,-27.769 -56.4977,-60.6479 -83.2449,-84.4588 -32.4752,-28.91032 -60.9597,-49.66492 -82.7554,-60.29822 -3.6728,-1.7918 -7.8046,-3.6496 -9.1818,-4.1285 -1.3773,-0.4788 -2.5042,-0.9831 -2.5042,-1.1206 0,-0.1375 1.4176,-0.7585 3.1503,-1.3799 4.7669,-1.7096 16.7314,-7.9309 24.7529,-12.871 21.2192,-13.068 46.1509,-32.6548 75.3206,-59.1732 10.6706,-9.7008 38.5541,-37.3255 49.8632,-49.4004 41.8111,-44.6426 74.5636,-87.5231 90.6481,-118.679 1.4429,-2.7948 2.7307,-5.0815 2.8619,-5.0815 0.1311,0 1.419,2.2867 2.8619,5.0815 14.7329,28.5378 43.583,67.071 81.4875,108.8377 11.504,12.6761 46.2962,47.6358 58.2666,58.547 31.1275,28.3732 55.9673,47.7665 78.7012,61.4447 7.2232,4.346 18.4844,10.0554 22.7756,11.5474 1.3773,0.4788 2.5042,1.0116 2.5042,1.1839 0,0.1723 -0.5816,0.4593 -1.2923,0.6377 -0.7108,0.1784 -3.7768,1.4475 -6.8134,2.8204 -25.9543,11.7336 -64.5415,40.8193 -104.9378,79.09822 -11.8459,11.225 -36.5271,36.2334 -46.5161,47.1328 -38.9646,42.5157 -69.0569,82.4663 -84.1755,111.7512 -1.4429,2.7948 -2.7308,5.0815 -2.8619,5.0815 -0.1312,0 -1.419,-2.2867 -2.8619,-5.0815 z"
     id="path4138"
     inkscape:connector-curvature="0" />
</svg>
