<?xml version="1.0" encoding="UTF-8" standalone="no"?>
<!-- Created with Inkscape (http://www.inkscape.org/) -->

<svg
   xmlns:dc="http://purl.org/dc/elements/1.1/"
   xmlns:cc="http://creativecommons.org/ns#"
   xmlns:rdf="http://www.w3.org/1999/02/22-rdf-syntax-ns#"
   xmlns:svg="http://www.w3.org/2000/svg"
   xmlns="http://www.w3.org/2000/svg"
   xmlns:sodipodi="http://sodipodi.sourceforge.net/DTD/sodipodi-0.dtd"
   xmlns:inkscape="http://www.inkscape.org/namespaces/inkscape"
   id="svg2"
   version="1.1"
   inkscape:version="0.91 r13725"
   width="2048"
   height="2048"
   viewBox="0 0 2048 2048"
   sodipodi:docname="Ophis.svg"
   inkscape:export-filename="C:\Users\craig\Pictures\SVG\Runes\Ophis.png"
   inkscape:export-xdpi="90"
   inkscape:export-ydpi="90">
  <metadata
     id="metadata8">
    <rdf:RDF>
      <cc:Work
         rdf:about="">
        <dc:format>image/svg+xml</dc:format>
        <dc:type
           rdf:resource="http://purl.org/dc/dcmitype/StillImage" />
        <dc:title />
      </cc:Work>
    </rdf:RDF>
  </metadata>
  <defs
     id="defs6" />
  <sodipodi:namedview
     pagecolor="#ffffff"
     bordercolor="#666666"
     borderopacity="1"
     objecttolerance="10"
     gridtolerance="10"
     guidetolerance="10"
     inkscape:pageopacity="0"
     inkscape:pageshadow="2"
     inkscape:window-width="640"
     inkscape:window-height="480"
     id="namedview4"
     showgrid="false"
     inkscape:zoom="0.27539062"
     inkscape:cx="404.87941"
     inkscape:cy="1024"
     inkscape:current-layer="svg2" />
  <path
     style="fill:#00ff00"
     d="M 658.95611,1981.8858 C 607.1003,1901.5807 518.20629,1723.0425 484.69397,1631.8909 329.71951,1210.3697 360.98071,762.25978 576.71898,312.76968 627.14261,207.71228 718.06801,44.478685 723.26781,49.678485 c 1.757,1.757 -6.0918,59.159895 -17.4418,127.561895 -46.5627,280.6137 -62.0839,436.9018 -66.6271,670.8884 -3.9848,205.22552 1.6356,297.89602 25.7119,423.94672 32.684,171.1159 97.7585,291.2147 183.5355,338.7256 32.7175,18.1219 42.3779,20.118 97.3612,20.118 56.59109,0 64.93909,-1.8617 114.54079,-25.5448 29.4255,-14.0497 67.9721,-36.1677 85.6591,-49.1511 28.6017,-20.9956 33.1329,-22.4318 40.9719,-12.9864 7.6354,9.2001 -24.2179,43.6514 -238.25869,257.6915 L 701.64831,2048 l -42.6922,-66.1142 z m 663.28099,19.704 c -0.01,-5.023 8.9932,-63.0108 20.0062,-128.8618 47.9443,-286.6785 61.7873,-428.3301 66.05,-675.8697 2.9243,-169.8194 1.4654,-228.87081 -7.5867,-307.09371 -48.9077,-422.6319 -230.5831,-576.8606 -480.82569,-408.1846 -42.6745,28.7648 -49.9151,31.5965 -58.7124,22.9621 -8.8177,-8.6545 19.956,-39.8482 237.24209,-257.1955 L 1345.6875,1.5e-5 l 41.9497,64.97297 c 238.0654,368.723505 323.2185,788.688895 243.3521,1200.185915 -28.721,147.9797 -73.426,284.9919 -143.5813,440.0491 -49.7207,109.8929 -165.1316,316.9854 -165.1709,296.3818 z m -321.4584,-803.036 c -17.81739,-50.1768 -101.44069,-133.8002 -151.61759,-151.6175 -24.732,-8.7822 -35.6065,-16.3001 -35.6065,-24.6161 0,-6.5848 4.6794,-11.9725 10.3988,-11.9725 22.0974,0 76.9696,-34.58142 114.854,-72.38292 35.5634,-35.4857 71.18879,-93.3047 71.36479,-115.8231 0.036,-4.6628 5.4538,-8.4778 12.0387,-8.4778 8.316,0 15.8339,10.8745 24.6161,35.6066 17.8173,50.1768 101.4407,133.8002 151.6175,151.61752 40.1666,14.2628 47.7845,32.1103 16.9555,39.7246 -54.587,13.482 -149.1337,103.2162 -169.668,161.0319 -15.3297,43.1619 -28.8598,42.2316 -44.9533,-3.0907 z"
     id="path4138"
     inkscape:connector-curvature="0" />
</svg>
